# xmcd
#
# Track frame offsets:
#	150
#	26390
#	45454
#	62956
#	77680
#	94625
#	110913
#	128256
#	152972
#	174952
#	201254
#	227720
#	256120
#	270894
#	290939
#	307532
#
# Disc length: 4315 seconds
#
# Revision: 1
# Processed by: cddbd v1.4b41PL2 Copyright (c) Steve Scherf et al.
# Submitted via: audiograbber 1.80
#
DISCID=c910d910
DTITLE=200% Future - k
DYEAR=1900
DGENRE=
TTITLE0=lemon 8 - house
TTITLE1=da hool - meet her at the love parade
TTITLE2=bbe - desire
TTITLE3=syntone - heal my world
TTITLE4=t - fobia
TTITLE5=kadoc - rock the bells
TTITLE6=subliminal cuts - le voie le soleil
TTITLE7=emotrance - return to tasmania
TTITLE8=yves deruyter - the rebel
TTITLE9=passenger - blackspin
TTITLE10=ceremony x - planet of dreams
TTITLE11=dj bobellow - do it all night
TTITLE12=london boy - jump up in the air
TTITLE13=kinky toys - carpe diem
TTITLE14=49 ers - baby i'm yours
TTITLE15=t spoon - a part of my life
EXTD=
EXTT0=
EXTT1=
EXTT2=
EXTT3=
EXTT4=
EXTT5=
EXTT6=
EXTT7=
EXTT8=
EXTT9=
EXTT10=
EXTT11=
EXTT12=
EXTT13=
EXTT14=
EXTT15=
PLAYORDER=
